# xmcd
#
# Track frame offsets:
#	150
#	17110
#	40868
#	58683
#	80867
#	96736
#	117722
#	134243
#	157604
#	176667
#
# Disc length: 2574 seconds
#
# Revision: 0
# Processed by: cddbd v1.5.1PL0 Copyright (c) Steve Scherf et al.
# Submitted via: dBpowerAMP V4.0
#
DISCID=910a0c0a
DTITLE=Pedro Ortaça - Timbre de Galo
DYEAR=1900
DGENRE=Other
TTITLE0=Timbre de Galo
TTITLE1=Finado Trançudo
TTITLE2=Rumos
TTITLE3=O Grito do Lenha Podre
TTITLE4=Debulhando Milho
TTITLE5=Queixo Duro
TTITLE6=Canção Índia ao Meu Povoado
TTITLE7=Missioneiros
TTITLE8=Brisa de Liberdade
TTITLE9=Esperança Povoeira
EXTD=
EXTT0=
EXTT1=
EXTT2=
EXTT3=
EXTT4=
EXTT5=
EXTT6=
EXTT7=
EXTT8=
EXTT9=
PLAYORDER=
